<svg height='100px' width='100px'  fill="#0073E6" xmlns="http://www.w3.org/2000/svg" xmlns:xlink="http://www.w3.org/1999/xlink" version="1.1" x="0px" y="0px" viewBox="0 0 64 64" enable-background="new 0 0 64 64" xml:space="preserve"><path d="M32.75,42.23h7c1.665,0,3.02,1.351,3.02,3.01v3.224l15.011-3.673V8.327l-25.03,7.482V42.23z M37.871,21.085l13.83-3.6  c0.393-0.102,0.81,0.135,0.914,0.537c0.104,0.401-0.136,0.811-0.537,0.915l-13.83,3.6c-0.063,0.017-0.126,0.024-0.189,0.024  c-0.333,0-0.637-0.224-0.725-0.561C37.229,21.599,37.47,21.189,37.871,21.085z"></path><path d="M11.156,4.151l14.854,8.526L32,14.467l5.665-1.693l14.606-8.628c0.356-0.21,0.475-0.67,0.264-1.027  s-0.668-0.477-1.027-0.264l-16.484,9.739l7.519-9.642c0.254-0.327,0.196-0.798-0.131-1.053c-0.326-0.256-0.798-0.196-1.053,0.13  l-9.4,12.056L21.026,1.988c-0.278-0.307-0.752-0.33-1.06-0.054c-0.307,0.278-0.331,0.752-0.054,1.06l8.362,9.254L11.903,2.85  c-0.359-0.207-0.817-0.082-1.024,0.277C10.673,3.486,10.797,3.945,11.156,4.151z"></path><path d="M6.22,44.791l15.01,3.673V45.24c0-1.659,1.355-3.01,3.021-3.01h7V15.809L6.22,8.327V44.791z M10.807,18.01  c0.111-0.399,0.521-0.633,0.924-0.522l12.97,3.6c0.399,0.111,0.633,0.524,0.522,0.923c-0.093,0.332-0.394,0.549-0.723,0.549  c-0.066,0-0.134-0.009-0.201-0.027l-12.97-3.6C10.93,18.822,10.696,18.409,10.807,18.01z"></path><path d="M22.729,45.24v15.5c0,0.838,0.682,1.52,1.521,1.52h15.5c0.838,0,1.52-0.682,1.52-1.52v-15.5c0-0.832-0.682-1.51-1.52-1.51  h-15.5C23.411,43.73,22.729,44.408,22.729,45.24z M27.157,53.34c0.254-0.327,0.726-0.386,1.053-0.133l3.04,2.36V48.88  c0-0.414,0.336-0.75,0.75-0.75s0.75,0.336,0.75,0.75v6.688l3.04-2.36c0.328-0.253,0.798-0.192,1.053,0.133  c0.254,0.327,0.194,0.798-0.133,1.053l-4.25,3.3c-0.029,0.022-0.063,0.033-0.095,0.051c-0.021,0.012-0.036,0.027-0.058,0.036  c-0.014,0.007-0.027,0.011-0.041,0.017C32.181,57.829,32.091,57.85,32,57.85l0,0l0,0l0,0c-0.001,0-0.001,0-0.001,0  c-0.09,0-0.18-0.021-0.267-0.054c-0.014-0.006-0.027-0.01-0.041-0.017c-0.021-0.009-0.036-0.024-0.057-0.036  c-0.031-0.018-0.065-0.028-0.095-0.051l-4.25-3.3C26.963,54.138,26.903,53.667,27.157,53.34z"></path></svg>