<?xml version="1.0" encoding="UTF-8"?>
<svg fill="#3171DE" width="100pt" height="100pt" version="1.1" viewBox="0 0 100 100" xmlns="http://www.w3.org/2000/svg">
 <g>
  <path d="m97.5 16.379v-1.8516c-0.003906-1.5312-1.2422-2.7734-2.7773-2.7734h-43.488v-3.6992c0-0.68359-0.55469-1.2344-1.2344-1.2344s-1.2344 0.55078-1.2344 1.2344v3.6992h-43.488c-1.5352 0-2.7734 1.2422-2.7773 2.7734v1.8516c0.003906 1.1719 0.74609 2.2188 1.8516 2.6055v52.16c-1.1055 0.39062-1.8477 1.4336-1.8516 2.6055v1.8516c0 1.5312 1.2422 2.7734 2.7773 2.7734h37.48l-8.5898 12.891c-0.1875 0.26953-0.25391 0.60547-0.19141 0.92969 0.0625 0.32422 0.25 0.60938 0.52734 0.78906 0.27344 0.18359 0.60938 0.25 0.93359 0.18359 0.32031-0.066407 0.60547-0.26172 0.78516-0.53516l9.5-14.254h3.043v9.8711l-0.003906-0.003906c0 0.68359 0.55469 1.2344 1.2344 1.2344 0.67969 0 1.2344-0.55078 1.2344-1.2344v-9.8672h3.043l9.5 14.254h-0.003907c0.38281 0.55859 1.1406 0.70703 1.707 0.33203 0.5625-0.375 0.71875-1.1328 0.34766-1.6992l-8.582-12.887h37.48c1.5352-0.003906 2.7773-1.2461 2.7773-2.7773v-1.8516c-0.003906-1.1719-0.74609-2.2148-1.8516-2.6055v-52.16c1.1055-0.38672 1.8477-1.4336 1.8516-2.6055zm-92.531-1.8516c0-0.16797 0.13672-0.30469 0.30859-0.30469h89.445c0.17188 0 0.30859 0.13672 0.30859 0.30469v1.8516c0 0.17188-0.13672 0.30859-0.30859 0.30859h-89.445c-0.17188 0-0.30859-0.13672-0.30859-0.30859zm88.215 56.449h-86.367v-51.82h86.367zm1.8477 4.625c0 0.16797-0.13672 0.30859-0.30859 0.30859h-89.445c-0.17188 0-0.30859-0.14062-0.30859-0.30859v-1.8516c0-0.17188 0.13672-0.30859 0.30859-0.30859h89.445c0.17188 0 0.30859 0.13672 0.30859 0.30859z"/>
  <path d="m61.102 38.898h19.738c0.33203 0.011718 0.65625-0.11328 0.89453-0.34766 0.23828-0.23047 0.375-0.55078 0.375-0.88281 0-0.33594-0.13672-0.65234-0.375-0.88672-0.23828-0.23047-0.5625-0.35938-0.89453-0.34766h-19.738c-0.66797 0.019531-1.1992 0.56641-1.1992 1.2344s0.53125 1.2148 1.1992 1.2305z"/>
  <path d="m61.102 46.301h24.68c0.66797-0.019531 1.1992-0.56641 1.1992-1.2344 0-0.66797-0.53125-1.2148-1.1992-1.2344h-24.68c-0.66797 0.019531-1.1992 0.56641-1.1992 1.2344 0 0.66797 0.53125 1.2148 1.1992 1.2344z"/>
  <path d="m61.102 53.699h14.809c0.66797-0.019531 1.1992-0.56641 1.1992-1.2344 0-0.66797-0.53125-1.2109-1.1992-1.2305h-14.809c-0.66797 0.019531-1.1992 0.5625-1.1992 1.2305 0 0.66797 0.53125 1.2148 1.1992 1.2344z"/>
  <path d="m28.293 65.668c1.2461 0.24219 2.5117 0.36328 3.7812 0.36328 5.0781 0.015625 9.9531-1.9922 13.547-5.5781 3.5938-3.5898 5.6133-8.4609 5.6133-13.539 0-0.32422-0.13281-0.64062-0.36328-0.87109-0.23047-0.23047-0.54297-0.35938-0.87109-0.35938h-16.656v-16.656c0-0.68359-0.55469-1.2344-1.2344-1.2344-6.3789 0-12.34 3.1797-15.891 8.4766-3.5547 5.3008-4.2305 12.023-1.8047 17.922 2.4219 5.9023 7.6289 10.207 13.879 11.477zm-9.0391-29.344c2.8867-3.5117 7.0859-5.6875 11.621-6.0195v16.609c0 0.68359 0.55469 1.2344 1.2344 1.2344h16.613c-0.33203 4.5352-2.5078 8.7383-6.0234 11.625-3.8906 3.1875-9.0039 4.4609-13.934 3.4727-3.207-0.64062-6.1484-2.2148-8.4609-4.5234-2.3086-2.3125-3.8867-5.2578-4.5273-8.4609-0.98438-4.9297 0.28906-10.047 3.4766-13.938z"/>
  <path d="m35.812 44.449h17.887c0.68359 0 1.2344-0.55469 1.2344-1.2344-0.003906-5.0703-2.0234-9.9297-5.6055-13.516-3.5859-3.5859-8.4453-5.6016-13.516-5.6094-0.68359 0-1.2344 0.55469-1.2344 1.2344v17.891c0 0.67969 0.55078 1.2344 1.2344 1.2344zm1.2344-17.848c3.9766 0.30078 7.7148 2.0156 10.539 4.8398 2.8203 2.8203 4.5352 6.5625 4.8359 10.539h-15.375z"/>
 </g>
</svg>
