<?xml version="1.0" encoding="UTF-8"?>
<svg fill="#0073E6" width="100pt" height="100pt" version="1.1" viewBox="0 0 100 100" xmlns="http://www.w3.org/2000/svg">
 <g>
  <path d="m15 80.633h70c3.6836 0 6.668-3 6.668-6.668v-47.914c0-3.6836-2.9844-6.668-6.668-6.668h-70c-3.668 0-6.668 2.9844-6.668 6.668v36.668 0.015625 11.234c0 3.6641 3 6.6641 6.668 6.6641zm4.5156-6.75c0 0.91797-0.75 1.668-1.668 1.668-0.91797 0-1.668-0.75-1.668-1.668v-6.1016c0-0.91797 0.75-1.668 1.668-1.668 0.91797 0 1.668 0.75 1.668 1.668zm5.3164 0c0 0.91797-0.75 1.668-1.668 1.668-0.91797 0-1.668-0.75-1.668-1.668v-6.1016c0-0.91797 0.75-1.668 1.668-1.668 0.91797 0 1.668 0.75 1.668 1.668zm55.102-1.3828h-38.332v2.3008c0 0.91797-0.75 1.668-1.668 1.668-0.91797 0-1.668-0.75-1.668-1.668v-2.3008h-6.668c-0.91797 0-1.668-0.75-1.668-1.668s0.75-1.668 1.668-1.668h6.668v-2.3008c0-0.91797 0.75-1.668 1.668-1.668 0.91797 0 1.668 0.75 1.668 1.668v2.3008h38.332c0.91797 0 1.668 0.75 1.668 1.668s-0.73437 1.668-1.668 1.668zm-68.266-46.449c0-1.832 1.5-3.332 3.332-3.332h70c1.8516 0 3.332 1.5 3.332 3.332v35h-76.664z"/>
  <path d="m57.117 42.148-12.434-7.918c-0.5-0.33203-1.1484-0.35156-1.6992-0.066407-0.53516 0.30078-0.86719 0.85156-0.86719 1.4648v15.832c0 0.60156 0.33203 1.168 0.86719 1.4648 0.25 0.13281 0.53516 0.19922 0.80078 0.19922 0.31641 0 0.63281-0.082031 0.89844-0.26562l12.434-7.918c0.48437-0.30078 0.76562-0.83203 0.76562-1.3984 0-0.55859-0.28125-1.0938-0.76562-1.3945z"/>
 </g>
</svg>
